<svg width="62" height="61" viewBox="0 0 62 61" fill="none" xmlns="http://www.w3.org/2000/svg">
<g clip-path="url(#clip0_31_9)">
<path d="M46.0588 6.09265H15.5954L12.5491 24.3707H49.1051L46.0588 6.09265ZM0.36377 30.4633C0.36377 30.4633 6.45644 33.5097 30.8271 33.5097C55.1978 33.5097 61.2904 30.4633 61.2904 30.4633L49.1051 24.3707H12.5491L0.36377 30.4633ZM24.7344 42.6487H36.9198V45.695H24.7344V42.6487Z" fill="#37426B"/>
<path d="M18.6414 54.834C23.6888 54.834 27.7804 50.7423 27.7804 45.695C27.7804 40.6477 23.6888 36.556 18.6414 36.556C13.5941 36.556 9.50244 40.6477 9.50244 45.695C9.50244 50.7423 13.5941 54.834 18.6414 54.834Z" fill="#37426B"/>
<path d="M43.012 54.834C48.0594 54.834 52.151 50.7423 52.151 45.695C52.151 40.6477 48.0594 36.556 43.012 36.556C37.9647 36.556 33.873 40.6477 33.873 45.695C33.873 50.7423 37.9647 54.834 43.012 54.834Z" fill="#37426B"/>
</g>
<defs>
<clipPath id="clip0_31_9">
<rect width="60.9267" height="60.9267" fill="white" transform="translate(0.36377)"/>
</clipPath>
</defs>
</svg>
